<svg width="24" height="24" viewBox="0 0 24 24" fill="none" xmlns="http://www.w3.org/2000/svg">
<g clip-path="url(#clip0)">
<path d="M15.913 12.7826H0.782609C0.350607 12.7826 0 12.432 0 12C0 11.568 0.350607 11.2174 0.782609 11.2174H15.913C16.345 11.2174 16.6956 11.568 16.6956 12C16.6956 12.432 16.345 12.7826 15.913 12.7826Z" fill="#ED8E00"/>
<path d="M11.7395 16.9563C11.5391 16.9563 11.3388 16.8803 11.1864 16.7269C10.8807 16.4212 10.8807 15.9255 11.1864 15.6196L14.8073 11.9989L11.1864 8.37802C10.8807 8.07231 10.8807 7.57649 11.1864 7.27078C11.4923 6.96508 11.9879 6.96508 12.2936 7.27078L16.4675 11.4448C16.7732 11.7505 16.7732 12.2462 16.4675 12.5519L12.2936 16.7257C12.1402 16.8803 11.9399 16.9563 11.7395 16.9563Z" fill="#ED8E00"/>
<path d="M12.5217 23.4784C7.77274 23.4784 3.58017 20.6214 1.83859 16.1989C1.68001 15.7983 1.87815 15.3433 2.27996 15.1847C2.68063 15.0283 3.1367 15.2233 3.29529 15.6273C4.79898 19.4453 8.42084 21.9132 12.5217 21.9132C17.9873 21.9132 22.4348 17.4657 22.4348 12.0001C22.4348 6.5344 17.9873 2.08695 12.5217 2.08695C8.42084 2.08695 4.79898 4.55476 3.29529 8.37284C3.13555 8.77676 2.68063 8.97184 2.27996 8.81535C1.87815 8.65677 1.68001 8.20184 1.83859 7.80117C3.58017 3.37875 7.77274 0.521729 12.5217 0.521729C18.8504 0.521729 24 5.67135 24 12.0001C24 18.3288 18.8504 23.4784 12.5217 23.4784Z" fill="#ED8E00"/>
</g>
<defs>
<clipPath id="clip0">
<rect width="24" height="24" fill="white"/>
</clipPath>
</defs>
</svg>
