<svg width="20" height="20" viewBox="0 0 20 20" fill="none" xmlns="http://www.w3.org/2000/svg">
<mask id="mask0" mask-type="alpha" maskUnits="userSpaceOnUse" x="0" y="0" width="20" height="20">
<circle cx="10" cy="10" r="10" fill="white"/>
</mask>
<g mask="url(#mask0)">
<path d="M9.90858 -0.0909424C5.50218 -0.0909424 1.76851 2.73454 0.389404 6.63639H19.4278C18.0487 2.73454 14.315 -0.0909424 9.90858 -0.0909424Z" fill="#3E4347"/>
<path d="M9.90858 20.0911C14.315 20.0911 18.0487 17.2993 19.4278 13.3638H0.389404C1.76851 17.2993 5.50218 20.0911 9.90858 20.0911Z" fill="#FFE62E"/>
<path d="M0.38945 6.63635C0.0194469 7.67909 -0.182373 8.82274 -0.182373 10C-0.182373 11.1773 0.0194469 12.3209 0.38945 13.3637H19.4278C19.7978 12.3209 19.9996 11.1773 19.9996 10C19.9996 8.82274 19.7978 7.67909 19.4278 6.63635H0.38945Z" fill="#ED4C5C"/>
</g>
</svg>
