<svg width="20" height="20" viewBox="0 0 20 20" fill="none" xmlns="http://www.w3.org/2000/svg">
<mask id="mask0" mask-type="alpha" maskUnits="userSpaceOnUse" x="0" y="0" width="20" height="20">
<circle cx="10" cy="10" r="10" fill="white"/>
</mask>
<g mask="url(#mask0)">
<path d="M6.66673 19.4334V14.8334L3.2334 17.3667C4.20007 18.2667 5.36673 18.9667 6.66673 19.4334Z" fill="#2A5F9E"/>
<path d="M13.3328 19.4334C14.6328 18.9667 15.7994 18.2667 16.7661 17.3667L13.3328 14.8V19.4334Z" fill="#2A5F9E"/>
<path d="M0.566406 13.3334C0.666406 13.6667 0.79974 13.9667 0.966406 14.3L2.26641 13.3334H0.566406Z" fill="#2A5F9E"/>
<path d="M17.7334 13.3334L19.0334 14.3C19.1667 14 19.3001 13.6667 19.4334 13.3334H17.7334Z" fill="#2A5F9E"/>
<path d="M7.16637 12H0.199707C0.299707 12.4667 0.43304 12.9 0.566374 13.3333H2.26637L0.966374 14.3C1.23304 14.8667 1.53304 15.3667 1.89971 15.8667L5.33304 13.3333H6.66637V14L2.76637 16.8667L3.23304 17.3333L6.66637 14.8333V19.4333C7.09971 19.6 7.53304 19.7 7.99971 19.8V12H7.16637Z" fill="white"/>
<path d="M19.7998 12H11.9998V19.8C12.4664 19.7 12.8998 19.5667 13.3331 19.4333V14.8333L16.7664 17.3333C17.2331 16.9 17.6331 16.4333 18.0331 15.9333L14.4664 13.3333H16.7331L18.7664 14.8333C18.8664 14.6667 18.9664 14.4667 19.0331 14.3L17.7331 13.3333H19.4331C19.5664 12.9 19.6998 12.4667 19.7998 12Z" fill="white"/>
<path d="M1.90039 15.8667C2.16706 16.2334 2.43372 16.5667 2.73372 16.9L6.66706 14.0334V13.3667H5.33372L1.90039 15.8667Z" fill="#ED4C5C"/>
<path d="M14.5007 13.3334L18.0674 15.9334C18.2007 15.7667 18.3007 15.6 18.4341 15.4334C18.4674 15.4 18.4674 15.3667 18.5007 15.3667C18.6007 15.2 18.7341 15 18.8341 14.8334L16.7341 13.3334H14.5007Z" fill="#ED4C5C"/>
<path d="M13.3328 0.56665V5.16665L16.7661 2.63332C15.7994 1.73332 14.6328 1.03332 13.3328 0.56665Z" fill="#2A5F9E"/>
<path d="M6.66673 0.56665C5.36673 1.03332 4.20007 1.73332 3.2334 2.63332L6.66673 5.19998V0.56665Z" fill="#2A5F9E"/>
<path d="M19.4334 6.66662C19.3334 6.33328 19.2001 6.03328 19.0334 5.69995L17.7334 6.66662H19.4334Z" fill="#2A5F9E"/>
<path d="M2.26641 6.66662L0.966406 5.69995C0.833073 6.03328 0.69974 6.33328 0.566406 6.66662H2.26641Z" fill="#2A5F9E"/>
<path d="M12.8331 7.99995H19.7664C19.6664 7.53328 19.5331 7.09995 19.3998 6.66662H17.6998L18.9998 5.69995C18.7331 5.13328 18.4331 4.63328 18.0664 4.13328L14.6664 6.66662H13.3331V5.99995L17.2331 3.13328L16.7664 2.66662L13.3331 5.16662V0.566618C12.8998 0.399951 12.4664 0.299951 11.9998 0.199951V7.99995H12.8331Z" fill="white"/>
<path d="M0.199707 7.99995H7.99971V0.199951C7.53304 0.299951 7.09971 0.433285 6.66637 0.566618V5.16662L3.23304 2.66662C2.76637 3.09995 2.36637 3.56662 1.96637 4.06662L5.53304 6.66662H3.26637L1.23304 5.16662C1.13304 5.33328 1.03304 5.53328 0.966374 5.69995L2.26637 6.66662H0.566374C0.43304 7.09995 0.299707 7.53328 0.199707 7.99995Z" fill="white"/>
<path d="M18.1004 4.13331C17.8337 3.76664 17.5671 3.43331 17.2671 3.09998L13.3337 5.96664V6.63331H14.6671L18.1004 4.13331Z" fill="#ED4C5C"/>
<path d="M5.5002 6.66665L1.96686 4.06665C1.83353 4.23332 1.73353 4.39998 1.6002 4.56665C1.56686 4.59998 1.56686 4.63332 1.53353 4.63332C1.43353 4.79998 1.3002 4.99998 1.2002 5.16665L3.23353 6.66665H5.5002Z" fill="#ED4C5C"/>
<path d="M19.8 8H12V0.2C11.3667 0.0666666 10.7 0 10 0C9.3 0 8.63333 0.0666666 8 0.2V8H0.2C0.0666666 8.63333 0 9.3 0 10C0 10.7 0.0666666 11.3667 0.2 12H8V19.8C8.63333 19.9333 9.3 20 10 20C10.7 20 11.3667 19.9333 12 19.8V12H19.8C19.9333 11.3667 20 10.7 20 10C20 9.3 19.9333 8.63333 19.8 8Z" fill="#ED4C5C"/>
</g>
</svg>
