<svg width="22" height="22" viewBox="0 0 22 22" fill="none" xmlns="http://www.w3.org/2000/svg">
<mask id="mask0" mask-type="alpha" maskUnits="userSpaceOnUse" x="0" y="0" width="22" height="22">
<circle cx="11" cy="11" r="11" fill="white"/>
</mask>
<g mask="url(#mask0)">
<path d="M11 21C16.5228 21 21 16.5228 21 11C21 5.47715 16.5228 1 11 1C5.47715 1 1 5.47715 1 11C1 16.5228 5.47715 21 11 21Z" fill="#F3F3F3"/>
<path d="M8.13243 11.5667C9.06576 12.2001 10.3658 11.9334 10.9991 11.0001C11.6324 10.0667 12.8991 9.80005 13.8658 10.4334C14.7658 11.0334 15.0324 12.2001 14.5324 13.1001C15.6324 11.2334 15.1324 8.80005 13.2658 7.56672C11.3658 6.30005 8.79909 6.80005 7.53243 8.70005C7.49909 8.76672 7.46576 8.83339 7.43243 8.86672C6.96576 9.83339 7.26576 10.9667 8.13243 11.5667Z" fill="#ED4C5C"/>
<path d="M14.4331 13.3C14.4664 13.2333 14.4998 13.1666 14.5331 13.1333C14.4998 13.1666 14.4664 13.2333 14.4331 13.3Z" fill="#003478"/>
<path d="M13.8668 10.4334C12.9335 9.80002 11.6335 10.0667 11.0002 11C10.3668 11.9334 9.10015 12.2 8.13349 11.5667C7.23349 10.9667 6.96682 9.80002 7.46682 8.90002C6.33349 10.7667 6.86682 13.2 8.73349 14.4334C10.6335 15.7 13.2002 15.2 14.4668 13.3C14.5002 13.2334 14.5335 13.1667 14.5668 13.1334C15.0335 12.1667 14.7335 11.0334 13.8668 10.4334Z" fill="#428BC1"/>
<path d="M2.93322 8.10003L5.23322 4.6667L4.99989 4.50003L4.76655 4.3667L2.46655 7.80003L2.69989 7.93337L2.93322 8.10003Z" fill="#3E4347"/>
<path d="M3.56732 8.53335L3.80065 8.66668L6.06732 5.23335L5.86732 5.10002L5.63398 4.93335L3.33398 8.36668L3.56732 8.53335Z" fill="#3E4347"/>
<path d="M6.46662 5.5L4.19995 8.93333L4.43328 9.1L4.66662 9.23333L6.93328 5.8L6.69995 5.66667L6.46662 5.5Z" fill="#3E4347"/>
<path d="M16.4999 14.5001L16.7333 14.6667L17.7999 13.0667L17.5666 12.9001L17.3333 12.7667L16.2666 14.3667L16.4999 14.5001Z" fill="#3E4347"/>
<path d="M19.0659 13.9L17.9993 15.5L18.2326 15.6667L18.4659 15.8L19.5326 14.2L19.2993 14.0667L19.0659 13.9Z" fill="#3E4347"/>
<path d="M17.6002 15.2334L18.6669 13.6334L18.4335 13.4667L18.2002 13.3334L17.1335 14.9334L17.3669 15.0667L17.6002 15.2334Z" fill="#3E4347"/>
<path d="M16.3657 14.7334L16.1323 14.6001L15.0657 16.2001L15.299 16.3334L15.5323 16.5001L16.599 14.9001L16.3657 14.7334Z" fill="#3E4347"/>
<path d="M17.2003 15.3001L17.0003 15.1667L15.9336 16.7667L16.1336 16.9001L16.3669 17.0667L17.4336 15.4667L17.2003 15.3001Z" fill="#3E4347"/>
<path d="M17.8328 15.7334L16.7661 17.3334L16.9994 17.5001L17.2328 17.6334L18.2994 16.0334L18.0661 15.8667L17.8328 15.7334Z" fill="#3E4347"/>
<path d="M2.6994 14.0667L2.46606 14.2L4.76606 17.6334L4.9994 17.5L5.23273 17.3334L2.93273 13.9L2.6994 14.0667Z" fill="#3E4347"/>
<path d="M4.7995 15.3001L4.56616 15.4667L5.63283 17.0667L5.86616 16.9001L6.06616 16.7667L4.9995 15.1667L4.7995 15.3001Z" fill="#3E4347"/>
<path d="M4.43328 12.9001L4.19995 13.0667L6.46662 16.5001L6.69995 16.3334L6.93328 16.2001L4.66662 12.7667L4.43328 12.9001Z" fill="#3E4347"/>
<path d="M3.33398 13.6334L4.40065 15.2334L4.63398 15.0667L4.86732 14.9334L3.80065 13.3334L3.56732 13.4667L3.33398 13.6334Z" fill="#3E4347"/>
<path d="M18.0661 6.13337L18.2994 5.9667L17.2328 4.3667L16.9994 4.50003L16.7661 4.6667L17.8328 6.2667L18.0661 6.13337Z" fill="#3E4347"/>
<path d="M16.3657 7.26667L16.599 7.1L15.5323 5.5L15.299 5.66667L15.0657 5.8L16.1323 7.4L16.3657 7.26667Z" fill="#3E4347"/>
<path d="M17.9993 6.50007L19.0659 8.10007L19.2993 7.93341L19.5326 7.80007L18.4659 6.20007L18.2326 6.33341L17.9993 6.50007Z" fill="#3E4347"/>
<path d="M18.4336 8.53335L18.6669 8.36668L16.3669 4.93335L16.1336 5.10002L15.9336 5.23335L18.2003 8.66668L18.4336 8.53335Z" fill="#3E4347"/>
<path d="M17.5666 9.10004L17.7999 8.93337L16.7333 7.33337L16.4999 7.50004L16.2666 7.63337L17.3333 9.23337L17.5666 9.10004Z" fill="#3E4347"/>
</g>
</svg>
