<svg width="47" height="34" viewBox="0 0 47 34" fill="none" xmlns="http://www.w3.org/2000/svg">
<path d="M12.6285 18.0079L6.48558 9.33394C5.57459 8.05664 4.13707 7.37207 2.68283 7.37207C1.75512 7.37207 0.810698 7.64757 0 8.22361L10.8901 23.593L12.5867 25.9806L12.6201 26.0307C12.6285 26.0224 12.6285 26.0224 12.6369 26.0224C12.6536 26.0057 12.6703 25.9973 12.687 25.9806L14.3836 23.593C14.7848 22.2656 14.5926 20.7712 13.7317 19.5524L12.6285 18.0079Z" fill="#ED8E00"/>
<path d="M16.0475 16.2293L17.7441 18.6169L17.7775 18.6586L17.8109 18.6169L19.4992 16.2293L19.5828 16.1124L23.093 11.1534L26.6032 16.1124L26.6868 16.2293L28.3751 18.6169L28.4085 18.6586L28.4419 18.6169L30.1386 16.2293L30.2221 16.1124L41.0203 0.851536C40.2012 0.275497 39.2652 0 38.3291 0C36.8665 0 35.429 0.684568 34.5264 1.96187L28.4085 10.6025L25.943 7.12118L23.093 3.09725L20.243 7.12118L17.7691 10.6025L11.6429 1.96187C10.7319 0.684568 9.29442 0 7.84018 0C6.91247 0 5.96805 0.275497 5.15735 0.851536L15.9639 16.104L16.0475 16.2293Z" fill="#8152E4"/>
<path d="M43.4933 7.36328C42.0307 7.36328 40.5932 8.04785 39.6906 9.32515L33.5476 17.9991L32.4528 19.5436C31.5836 20.7624 31.3914 22.2568 31.8009 23.5842L33.4975 25.9718C33.5142 25.9885 33.5309 25.9969 33.5476 26.0136C33.556 26.0136 33.556 26.0219 33.5644 26.0219L33.5978 25.9718L35.2944 23.5842L46.1761 8.22317C45.3571 7.63878 44.421 7.36328 43.4933 7.36328Z" fill="#ED8E00"/>
<path d="M28.4329 25.4959L25.9925 22.048L23.1425 18.024L23.0923 18.0908L23.0422 18.024L20.1922 22.048L17.7518 25.4959L16.6569 27.0403C15.7877 28.2592 15.5955 29.7535 16.005 31.0809L17.7016 33.4686C17.7183 33.4853 17.735 33.4936 17.7518 33.5103C17.7601 33.5187 17.7601 33.5187 17.7685 33.5187L17.8019 33.4686L19.4985 31.0809L23.0505 26.0719L23.1007 26.0051L23.1508 26.0719L26.7029 31.0809L28.3995 33.4686L28.4329 33.5187C28.4413 33.5103 28.4413 33.5103 28.4496 33.5103C28.4663 33.4936 28.4831 33.4853 28.4998 33.4686L30.1964 31.0809C30.5976 29.7535 30.4053 28.2592 29.5445 27.0403L28.4329 25.4959Z" fill="#8152E4"/>
</svg>
