<svg width="20" height="20" viewBox="0 0 20 20" fill="none" xmlns="http://www.w3.org/2000/svg">
<mask id="mask0" mask-type="alpha" maskUnits="userSpaceOnUse" x="0" y="0" width="20" height="20">
<circle cx="10" cy="10" r="10" fill="white"/>
</mask>
<g mask="url(#mask0)">
<path d="M5 18.6667V1.33337C2 3.06671 0 6.30004 0 10C0 13.7 2 16.9334 5 18.6667Z" fill="#699635"/>
<path d="M10 0C8.16667 0 6.46667 0.5 5 1.33333V18.6667C6.46667 19.5333 8.16667 20 10 20C15.5333 20 20 15.5333 20 10C20 4.46667 15.5333 0 10 0Z" fill="#ED4C5C"/>
<path d="M5 6C2.8 6 1 7.8 1 10C1 12.2 2.8 14 5 14C7.2 14 9 12.2 9 10C9 7.8 7.2 6 5 6ZM5 13.5C3.06667 13.5 1.5 11.9333 1.5 10C1.5 8.06667 3.06667 6.5 5 6.5C6.93333 6.5 8.5 8.06667 8.5 10C8.5 11.9333 6.93333 13.5 5 13.5Z" fill="#FFE62E"/>
<path d="M6.3666 13.9001C6.29993 13.9667 6.19993 13.9667 6.13327 13.9001L1.5666 7.86673C1.49993 7.80007 1.49993 7.70006 1.5666 7.6334L1.6666 7.5334C1.73327 7.46673 1.83327 7.46673 1.89993 7.5334L6.4666 13.5667C6.53327 13.6334 6.53327 13.7334 6.4666 13.8001L6.3666 13.9001Z" fill="#FFE62E"/>
<path d="M5.06649 5.83337C5.16649 5.83337 5.23315 5.90004 5.23315 6.00004V14C5.23315 14.1 5.16649 14.1667 5.06649 14.1667H4.89982C4.79982 14.1667 4.73315 14.1 4.73315 14V6.00004C4.73315 5.90004 4.79982 5.83337 4.89982 5.83337H5.06649Z" fill="#FFE62E"/>
<path d="M8.96715 10.4334L5.00049 9.7334V10.2334L8.90049 10.9334C9.00049 10.9334 9.06715 10.9001 9.10049 10.8001L9.13382 10.6334C9.13382 10.5667 9.06715 10.4667 8.96715 10.4334Z" fill="#FFE62E"/>
<path d="M5.00008 9.70008L1.86674 7.50008C1.80008 7.43342 1.70008 7.46675 1.63341 7.53342L1.53341 7.66675C1.46674 7.73342 1.50008 7.83342 1.56674 7.90008L5.00008 10.3001V9.70008Z" fill="#FFE62E"/>
<path d="M4.86693 9.33337L1.73359 12.4667C1.66693 12.5334 1.66693 12.6334 1.73359 12.7L1.86693 12.8334C1.93359 12.9 2.03359 12.9 2.10026 12.8334L4.86693 10.0667V9.33337Z" fill="#FFE62E"/>
<path d="M4.99996 7.83337L0.833295 9.80004C0.766628 9.83337 0.699961 9.93337 0.766628 10.0334L0.833295 10.2C0.866628 10.2667 0.966628 10.3334 1.06663 10.2667L4.99996 8.40004V7.83337Z" fill="#FFE62E"/>
<path d="M8.69982 8.40007L4.73315 7.70007V8.20007L8.63315 8.90007C8.73315 8.90007 8.79982 8.86674 8.83315 8.76674L8.86649 8.60007C8.83315 8.50007 8.76649 8.40007 8.69982 8.40007Z" fill="#FFE62E"/>
<path d="M4.96684 12.3001C4.90017 12.3334 4.83351 12.4334 4.90017 12.5334L4.96684 12.7001C5.00017 12.7668 5.10017 12.8334 5.20017 12.7668L8.53351 11.2334L8.70017 10.6001L4.96684 12.3001Z" fill="#FFE62E"/>
<path d="M4.96673 11.1667L1.2334 9.80005V10.3334L4.96673 11.7V11.1667Z" fill="#FFE62E"/>
<path d="M2.36621 12.2667V12.7667L7.29954 13.1001C7.49954 12.9667 7.66621 12.8001 7.83288 12.6334L2.36621 12.2667Z" fill="#FFE62E"/>
<path d="M3.33374 8.33337V10.6667C3.33374 11.6 4.06707 12.3334 5.00041 12.3334C5.93374 12.3334 6.66707 11.6 6.66707 10.6667V8.33337H3.33374Z" fill="white"/>
<path d="M5.00033 13C3.70033 13 2.66699 11.9666 2.66699 10.6666V7.66663H7.33366V10.6666C7.33366 11.9666 6.30033 13 5.00033 13ZM4.00033 8.99996V10.6666C4.00033 11.2333 4.43366 11.6666 5.00033 11.6666C5.56699 11.6666 6.00033 11.2333 6.00033 10.6666V8.99996H4.00033Z" fill="#ED4C5C"/>
<path d="M4.69995 9.13331V9.66664C4.69995 9.76664 4.76662 9.83331 4.86662 9.83331H5.13328C5.23328 9.83331 5.29995 9.76664 5.29995 9.66664V9.09998H4.69995V9.13331Z" fill="#0071BC"/>
<path d="M4.69995 9.96667V10.5333C4.69995 10.6333 4.76662 10.7 4.86662 10.7H5.13328C5.23328 10.7 5.29995 10.6333 5.29995 10.5333V9.96667H4.69995Z" fill="#0071BC"/>
<path d="M4.0332 9.96667V10.5333C4.0332 10.6333 4.09987 10.7 4.19987 10.7H4.46654C4.56654 10.7 4.6332 10.6333 4.6332 10.5333V9.96667H4.0332Z" fill="#0071BC"/>
<path d="M5.3667 9.96667V10.5333C5.3667 10.6333 5.43337 10.7 5.53337 10.7H5.80003C5.90003 10.7 5.9667 10.6333 5.9667 10.5333V9.96667H5.3667Z" fill="#0071BC"/>
<path d="M4.69995 10.7666V11.3333C4.69995 11.4333 4.76662 11.4999 4.86662 11.4999H5.13328C5.23328 11.4999 5.29995 11.4333 5.29995 11.3333V10.7666H4.69995Z" fill="#0071BC"/>
<path d="M4.99977 10.3667C5.03659 10.3667 5.06644 10.3369 5.06644 10.3001C5.06644 10.2632 5.03659 10.2334 4.99977 10.2334C4.96295 10.2334 4.93311 10.2632 4.93311 10.3001C4.93311 10.3369 4.96295 10.3667 4.99977 10.3667Z" fill="white"/>
<path d="M4.86672 10.5334C4.90353 10.5334 4.93338 10.5035 4.93338 10.4667C4.93338 10.4299 4.90353 10.4 4.86672 10.4C4.8299 10.4 4.80005 10.4299 4.80005 10.4667C4.80005 10.5035 4.8299 10.5334 4.86672 10.5334Z" fill="white"/>
<path d="M5.13307 10.5334C5.16989 10.5334 5.19974 10.5035 5.19974 10.4667C5.19974 10.4299 5.16989 10.4 5.13307 10.4C5.09625 10.4 5.06641 10.4299 5.06641 10.4667C5.06641 10.5035 5.09625 10.5334 5.13307 10.5334Z" fill="white"/>
<path d="M4.86672 10.2001C4.90353 10.2001 4.93338 10.1703 4.93338 10.1334C4.93338 10.0966 4.90353 10.0668 4.86672 10.0668C4.8299 10.0668 4.80005 10.0966 4.80005 10.1334C4.80005 10.1703 4.8299 10.2001 4.86672 10.2001Z" fill="white"/>
<path d="M5.13307 10.2001C5.16989 10.2001 5.19974 10.1703 5.19974 10.1334C5.19974 10.0966 5.16989 10.0668 5.13307 10.0668C5.09625 10.0668 5.06641 10.0966 5.06641 10.1334C5.06641 10.1703 5.09625 10.2001 5.13307 10.2001Z" fill="white"/>
<path d="M4.99977 9.53336C5.03659 9.53336 5.06644 9.50351 5.06644 9.46669C5.06644 9.42987 5.03659 9.40002 4.99977 9.40002C4.96295 9.40002 4.93311 9.42987 4.93311 9.46669C4.93311 9.50351 4.96295 9.53336 4.99977 9.53336Z" fill="white"/>
<path d="M4.86672 9.70011C4.90353 9.70011 4.93338 9.67026 4.93338 9.63344C4.93338 9.59662 4.90353 9.56677 4.86672 9.56677C4.8299 9.56677 4.80005 9.59662 4.80005 9.63344C4.80005 9.67026 4.8299 9.70011 4.86672 9.70011Z" fill="white"/>
<path d="M5.13307 9.70011C5.16989 9.70011 5.19974 9.67026 5.19974 9.63344C5.19974 9.59662 5.16989 9.56677 5.13307 9.56677C5.09625 9.56677 5.06641 9.59662 5.06641 9.63344C5.06641 9.67026 5.09625 9.70011 5.13307 9.70011Z" fill="white"/>
<path d="M4.86672 9.36673C4.90353 9.36673 4.93338 9.33688 4.93338 9.30006C4.93338 9.26325 4.90353 9.2334 4.86672 9.2334C4.8299 9.2334 4.80005 9.26325 4.80005 9.30006C4.80005 9.33688 4.8299 9.36673 4.86672 9.36673Z" fill="white"/>
<path d="M5.13307 9.36673C5.16989 9.36673 5.19974 9.33688 5.19974 9.30006C5.19974 9.26325 5.16989 9.2334 5.13307 9.2334C5.09625 9.2334 5.06641 9.26325 5.06641 9.30006C5.06641 9.33688 5.09625 9.36673 5.13307 9.36673Z" fill="white"/>
<path d="M5.66652 10.3667C5.70334 10.3667 5.73319 10.3369 5.73319 10.3001C5.73319 10.2632 5.70334 10.2334 5.66652 10.2334C5.6297 10.2334 5.59985 10.2632 5.59985 10.3001C5.59985 10.3369 5.6297 10.3667 5.66652 10.3667Z" fill="white"/>
<path d="M5.53346 10.5334C5.57028 10.5334 5.60013 10.5035 5.60013 10.4667C5.60013 10.4299 5.57028 10.4 5.53346 10.4C5.49664 10.4 5.4668 10.4299 5.4668 10.4667C5.4668 10.5035 5.49664 10.5334 5.53346 10.5334Z" fill="white"/>
<path d="M5.79982 10.5334C5.83664 10.5334 5.86649 10.5035 5.86649 10.4667C5.86649 10.4299 5.83664 10.4 5.79982 10.4C5.763 10.4 5.73315 10.4299 5.73315 10.4667C5.73315 10.5035 5.763 10.5334 5.79982 10.5334Z" fill="white"/>
<path d="M5.53346 10.2001C5.57028 10.2001 5.60013 10.1703 5.60013 10.1334C5.60013 10.0966 5.57028 10.0668 5.53346 10.0668C5.49664 10.0668 5.4668 10.0966 5.4668 10.1334C5.4668 10.1703 5.49664 10.2001 5.53346 10.2001Z" fill="white"/>
<path d="M5.79982 10.2001C5.83664 10.2001 5.86649 10.1703 5.86649 10.1334C5.86649 10.0966 5.83664 10.0668 5.79982 10.0668C5.763 10.0668 5.73315 10.0966 5.73315 10.1334C5.73315 10.1703 5.763 10.2001 5.79982 10.2001Z" fill="white"/>
<path d="M4.33302 10.3667C4.36984 10.3667 4.39969 10.3369 4.39969 10.3001C4.39969 10.2632 4.36984 10.2334 4.33302 10.2334C4.29621 10.2334 4.26636 10.2632 4.26636 10.3001C4.26636 10.3369 4.29621 10.3667 4.33302 10.3667Z" fill="white"/>
<path d="M4.19997 10.5334C4.23679 10.5334 4.26663 10.5035 4.26663 10.4667C4.26663 10.4299 4.23679 10.4 4.19997 10.4C4.16315 10.4 4.1333 10.4299 4.1333 10.4667C4.1333 10.5035 4.16315 10.5334 4.19997 10.5334Z" fill="white"/>
<path d="M4.46632 10.5334C4.50314 10.5334 4.53299 10.5035 4.53299 10.4667C4.53299 10.4299 4.50314 10.4 4.46632 10.4C4.42951 10.4 4.39966 10.4299 4.39966 10.4667C4.39966 10.5035 4.42951 10.5334 4.46632 10.5334Z" fill="white"/>
<path d="M4.19997 10.2001C4.23679 10.2001 4.26663 10.1703 4.26663 10.1334C4.26663 10.0966 4.23679 10.0668 4.19997 10.0668C4.16315 10.0668 4.1333 10.0966 4.1333 10.1334C4.1333 10.1703 4.16315 10.2001 4.19997 10.2001Z" fill="white"/>
<path d="M4.46632 10.2001C4.50314 10.2001 4.53299 10.1703 4.53299 10.1334C4.53299 10.0966 4.50314 10.0668 4.46632 10.0668C4.42951 10.0668 4.39966 10.0966 4.39966 10.1334C4.39966 10.1703 4.42951 10.2001 4.46632 10.2001Z" fill="white"/>
<path d="M4.99977 11.2001C5.03659 11.2001 5.06644 11.1703 5.06644 11.1334C5.06644 11.0966 5.03659 11.0668 4.99977 11.0668C4.96295 11.0668 4.93311 11.0966 4.93311 11.1334C4.93311 11.1703 4.96295 11.2001 4.99977 11.2001Z" fill="white"/>
<path d="M4.86672 11.3667C4.90353 11.3667 4.93338 11.3369 4.93338 11.3001C4.93338 11.2632 4.90353 11.2334 4.86672 11.2334C4.8299 11.2334 4.80005 11.2632 4.80005 11.3001C4.80005 11.3369 4.8299 11.3667 4.86672 11.3667Z" fill="white"/>
<path d="M5.13307 11.3667C5.16989 11.3667 5.19974 11.3369 5.19974 11.3001C5.19974 11.2632 5.16989 11.2334 5.13307 11.2334C5.09625 11.2334 5.06641 11.2632 5.06641 11.3001C5.06641 11.3369 5.09625 11.3667 5.13307 11.3667Z" fill="white"/>
<path d="M4.86672 11.0334C4.90353 11.0334 4.93338 11.0035 4.93338 10.9667C4.93338 10.9299 4.90353 10.9 4.86672 10.9C4.8299 10.9 4.80005 10.9299 4.80005 10.9667C4.80005 11.0035 4.8299 11.0334 4.86672 11.0334Z" fill="white"/>
<path d="M5.13307 11.0334C5.16989 11.0334 5.19974 11.0035 5.19974 10.9667C5.19974 10.9299 5.16989 10.9 5.13307 10.9C5.09625 10.9 5.06641 10.9299 5.06641 10.9667C5.06641 11.0035 5.09625 11.0334 5.13307 11.0334Z" fill="white"/>
<path d="M4.66699 8.66671H5.33366L5.26699 8.33337V8.00004H5.33366V7.83337H5.23366V7.93337H5.20033V7.83337H5.10033V7.93337H5.03366V7.83337H4.96699V7.93337H4.90033V7.83337H4.80033V7.93337H4.73366V7.83337H4.66699V8.00004H4.73366V8.33337L4.66699 8.66671Z" fill="#FFE62E"/>
<path d="M5.10112 8.66668H5.06779V8.53335C5.06779 8.50002 5.03446 8.46668 5.00112 8.46668C4.96779 8.46668 4.93446 8.50002 4.93446 8.53335V8.66668H4.90112V8.53335C4.90112 8.46668 4.93446 8.43335 5.00112 8.43335C5.06779 8.43335 5.10112 8.46668 5.10112 8.53335V8.66668Z" fill="#3E4347"/>
<path d="M5.00029 8.29999H4.80029V8.13332C4.80029 8.06666 4.83363 8.03333 4.90029 8.03333C4.96696 8.03333 5.00029 8.06666 5.00029 8.13332V8.29999ZM4.83363 8.26666H4.96696V8.13332C4.96696 8.09999 4.93363 8.06666 4.90029 8.06666C4.86696 8.06666 4.83363 8.09999 4.83363 8.13332V8.26666Z" fill="#3E4347"/>
<path d="M5.20049 8.29999H5.00049V8.13332C5.00049 8.06666 5.03382 8.03333 5.10049 8.03333C5.16715 8.03333 5.20049 8.06666 5.20049 8.13332V8.29999ZM5.03382 8.26666H5.16715V8.13332C5.16715 8.09999 5.13382 8.06666 5.10049 8.06666C5.06715 8.06666 5.03382 8.09999 5.03382 8.13332V8.26666Z" fill="#3E4347"/>
<path d="M2.99976 8.66671H3.66642L3.59976 8.33337V8.00004H3.66642V7.83337H3.56642V7.93337H3.53309V7.83337H3.43309V7.93337H3.36642V7.83337H3.29976V7.93337H3.23309V7.83337H3.13309V7.93337H3.06642V7.83337H2.99976V8.00004H3.06642V8.33337L2.99976 8.66671Z" fill="#FFE62E"/>
<path d="M3.43364 8.66668H3.40031V8.53335C3.40031 8.50002 3.36698 8.46668 3.33364 8.46668C3.30031 8.46668 3.26698 8.50002 3.26698 8.53335V8.66668H3.23364V8.53335C3.23364 8.46668 3.26698 8.43335 3.33364 8.43335C3.40031 8.43335 3.43364 8.46668 3.43364 8.53335V8.66668Z" fill="#3E4347"/>
<path d="M3.33306 8.29999H3.13306V8.13332C3.13306 8.06666 3.16639 8.03333 3.23306 8.03333C3.29972 8.03333 3.33306 8.06666 3.33306 8.13332V8.29999ZM3.16639 8.26666H3.29972V8.13332C3.29972 8.09999 3.26639 8.06666 3.23306 8.06666C3.19972 8.06666 3.16639 8.09999 3.16639 8.13332V8.26666Z" fill="#3E4347"/>
<path d="M3.53301 8.29999H3.33301V8.13332C3.33301 8.06666 3.36634 8.03333 3.43301 8.03333C3.49967 8.03333 3.53301 8.06666 3.53301 8.13332V8.29999ZM3.36634 8.26666H3.49967V8.13332C3.49967 8.09999 3.46634 8.06666 3.43301 8.06666C3.39967 8.06666 3.36634 8.09999 3.36634 8.13332V8.26666Z" fill="#3E4347"/>
<path d="M2.99976 10.6334H3.66642L3.59976 10.3V9.96672H3.66642V9.80005H3.59976V9.90005H3.53309V9.80005H3.46642V9.90005H3.36642V9.80005H3.29976V9.90005H3.23309V9.80005H3.16642V9.90005H3.09976V9.80005H2.99976V9.96672H3.09976V10.3L2.99976 10.6334Z" fill="#FFE62E"/>
<path d="M3.43364 10.6334H3.40031V10.5C3.40031 10.4667 3.36698 10.4334 3.33364 10.4334C3.30031 10.4334 3.26698 10.4667 3.26698 10.5V10.6334H3.23364V10.5C3.23364 10.4334 3.26698 10.4 3.33364 10.4C3.40031 10.4 3.43364 10.4334 3.43364 10.5V10.6334Z" fill="#3E4347"/>
<path d="M3.33306 10.2667H3.13306V10.1C3.13306 10.0333 3.16639 10 3.23306 10C3.29972 10 3.33306 10.0333 3.33306 10.1V10.2667ZM3.16639 10.2333H3.29972V10.1C3.29972 10.0667 3.26639 10.0333 3.23306 10.0333C3.19972 10.0333 3.16639 10.0667 3.16639 10.1V10.2333Z" fill="#3E4347"/>
<path d="M3.5667 10.2667H3.3667V10.1C3.3667 10.0333 3.40003 10 3.4667 10C3.53337 10 3.5667 10.0333 3.5667 10.1V10.2667ZM3.40003 10.2333H3.53337V10.1C3.53337 10.0667 3.50003 10.0333 3.4667 10.0333C3.43337 10.0333 3.40003 10.0667 3.40003 10.1V10.2333Z" fill="#3E4347"/>
<path d="M6.3335 10.6667H7.00016L6.9335 10.3334V10H7.00016V9.8667H6.90016V9.93337H6.86683V9.8667H6.76683V9.93337H6.70016V9.8667H6.6335V9.93337H6.56683V9.8667H6.46683V9.93337H6.40016V9.8667H6.3335V10H6.40016V10.3334L6.3335 10.6667Z" fill="#FFE62E"/>
<path d="M6.76665 10.6667H6.73332V10.5333C6.73332 10.5 6.69998 10.4667 6.66665 10.4667C6.63332 10.4667 6.59998 10.5 6.59998 10.5333V10.6667H6.56665V10.5333C6.56665 10.4667 6.59998 10.4333 6.66665 10.4333C6.73332 10.4333 6.76665 10.4667 6.76665 10.5333V10.6667Z" fill="#3E4347"/>
<path d="M6.66655 10.3H6.46655V10.1333C6.46655 10.0667 6.49989 10.0333 6.56655 10.0333C6.63322 10.0333 6.66655 10.0667 6.66655 10.1333V10.3ZM6.49989 10.2667H6.63322V10.1333C6.63322 10.1 6.59989 10.0667 6.56655 10.0667C6.53322 10.0667 6.49989 10.1 6.49989 10.1333V10.2667Z" fill="#3E4347"/>
<path d="M6.86602 10.3H6.66602V10.1333C6.66602 10.0667 6.69935 10.0333 6.76602 10.0333C6.83268 10.0333 6.86602 10.0667 6.86602 10.1333V10.3ZM6.69935 10.2667H6.83268V10.1333C6.83268 10.1 6.79935 10.0667 6.76602 10.0667C6.73268 10.0667 6.69935 10.1 6.69935 10.1333V10.2667Z" fill="#3E4347"/>
<path d="M6.3335 8.66671H7.00016L6.9335 8.33337V8.00004H7.00016V7.83337H6.90016V7.93337H6.86683V7.83337H6.76683V7.93337H6.70016V7.83337H6.6335V7.93337H6.56683V7.83337H6.46683V7.93337H6.40016V7.83337H6.3335V8.00004H6.40016V8.33337L6.3335 8.66671Z" fill="#FFE62E"/>
<path d="M6.76665 8.66668H6.73332V8.53335C6.73332 8.50002 6.69998 8.46668 6.66665 8.46668C6.63332 8.46668 6.59998 8.50002 6.59998 8.53335V8.66668H6.56665V8.53335C6.56665 8.46668 6.59998 8.43335 6.66665 8.43335C6.73332 8.43335 6.76665 8.46668 6.76665 8.53335V8.66668Z" fill="#3E4347"/>
<path d="M6.66655 8.29999H6.46655V8.13332C6.46655 8.06666 6.49989 8.03333 6.56655 8.03333C6.63322 8.03333 6.66655 8.06666 6.66655 8.13332V8.29999ZM6.49989 8.26666H6.63322V8.13332C6.63322 8.09999 6.59989 8.06666 6.56655 8.06666C6.53322 8.06666 6.49989 8.09999 6.49989 8.13332V8.26666Z" fill="#3E4347"/>
<path d="M6.86602 8.29999H6.66602V8.13332C6.66602 8.06666 6.69935 8.03333 6.76602 8.03333C6.83268 8.03333 6.86602 8.06666 6.86602 8.13332V8.29999ZM6.69935 8.26666H6.83268V8.13332C6.83268 8.09999 6.79935 8.06666 6.76602 8.06666C6.73268 8.06666 6.69935 8.09999 6.69935 8.13332V8.26666Z" fill="#3E4347"/>
<path d="M4.06642 12.5333L4.53309 12.0333L4.23309 11.8667L3.99976 11.6333L4.06642 11.5667L3.96642 11.4667L3.89976 11.5333L3.96642 11.6L3.93309 11.6333L3.86642 11.5667L3.79976 11.6333L3.86642 11.6667L3.79976 11.7333L3.76642 11.6667L3.69976 11.7333L3.76642 11.8L3.69976 11.8333L3.66642 11.7667L3.59976 11.8333L3.63309 11.9L3.59976 11.9333L3.56642 11.8667L3.49976 11.9333L3.59976 12.0333H3.63309L3.66642 12L3.89976 12.2333L4.06642 12.5333Z" fill="#FFE62E"/>
<path d="M4.36711 12.2001L4.23377 12.1334C4.20044 12.1001 4.16711 12.1001 4.13377 12.1334C4.10044 12.1667 4.10044 12.2001 4.13377 12.2334L4.23377 12.3334L4.20044 12.3667L4.10044 12.2667C4.06711 12.2334 4.06711 12.1667 4.10044 12.1334C4.13377 12.1001 4.20044 12.1001 4.23377 12.1334L4.36711 12.2001Z" fill="#3E4347"/>
<path d="M4.03372 12.0333L3.90039 12.1667L3.80039 12.0667C3.76706 12.0333 3.76706 11.9667 3.80039 11.9333C3.83372 11.9 3.90039 11.9 3.93372 11.9333L4.03372 12.0333ZM3.90039 12.1333L4.00039 12.0333L3.90039 11.9333C3.86706 11.9 3.83372 11.9 3.80039 11.9333C3.76706 11.9667 3.76706 12 3.80039 12.0333L3.90039 12.1333Z" fill="#3E4347"/>
<path d="M4.20072 11.8667L4.06738 12L3.96738 11.9C3.93405 11.8667 3.93405 11.8 3.96738 11.7667C4.00072 11.7334 4.06738 11.7334 4.10072 11.7667L4.20072 11.8667ZM4.06738 11.9667L4.16738 11.8667L4.06738 11.7667C4.03405 11.7334 4.00072 11.7334 3.96738 11.7667C3.93405 11.8 3.93405 11.8334 3.96738 11.8667L4.06738 11.9667Z" fill="#3E4347"/>
<path d="M5.93371 12.5333L5.46704 12.0333L5.73371 11.8667L5.96704 11.6333L5.93371 11.5667L6.03371 11.4667L6.10037 11.5333L6.03371 11.6L6.06704 11.6333L6.13371 11.5667L6.20037 11.6333L6.13371 11.6667L6.20037 11.7333L6.23371 11.6667L6.30037 11.7333L6.23371 11.8L6.30037 11.8333L6.33371 11.7667L6.40037 11.8333L6.33371 11.9L6.40037 11.9333L6.43371 11.8667L6.50037 11.9333L6.40037 12.0333H6.36704L6.33371 12L6.10037 12.2333L5.93371 12.5333Z" fill="#FFE62E"/>
<path d="M5.63306 12.2001L5.76639 12.1334C5.79972 12.1001 5.83306 12.1001 5.86639 12.1334C5.89972 12.1667 5.89972 12.2001 5.86639 12.2334L5.73306 12.3334L5.76639 12.3667L5.86639 12.2667C5.89972 12.2334 5.89972 12.1667 5.86639 12.1334C5.83306 12.1001 5.76639 12.1001 5.73306 12.1334L5.63306 12.2001Z" fill="#3E4347"/>
<path d="M6.0668 11.9333C6.10013 11.9 6.1668 11.9 6.20013 11.9333C6.23346 11.9667 6.23346 12.0333 6.20013 12.0667L6.10013 12.1667L5.9668 12.0333L6.0668 11.9333ZM6.1668 12.0333C6.20013 12 6.20013 11.9667 6.1668 11.9333C6.13346 11.9 6.10013 11.9 6.0668 11.9333L6.00013 12.0333L6.10013 12.1333L6.1668 12.0333Z" fill="#3E4347"/>
<path d="M5.90005 11.7667C5.93338 11.7334 6.00005 11.7334 6.03338 11.7667C6.06672 11.8 6.06672 11.8667 6.03338 11.9L5.93338 12L5.80005 11.8667L5.90005 11.7667ZM6.03338 11.8667C6.06672 11.8334 6.06672 11.8 6.03338 11.7667C6.00005 11.7334 5.96672 11.7334 5.93338 11.7667L5.83338 11.8667L5.93338 11.9667L6.03338 11.8667Z" fill="#3E4347"/>
</g>
</svg>
