<svg width="25" height="21" viewBox="0 0 25 21" fill="none" xmlns="http://www.w3.org/2000/svg">
<path d="M22.1354 20.8335H2.86465C1.28441 20.8335 0 19.5491 0 17.9688V4.94795C0 3.36771 1.28441 2.0835 2.86465 2.0835H9.11465C9.5459 2.0835 9.8959 2.43349 9.8959 2.86475C9.8959 3.296 9.5459 3.646 9.11465 3.646H2.86465C2.14691 3.646 1.5625 4.23022 1.5625 4.94795V17.9688C1.5625 18.6866 2.14691 19.271 2.86465 19.271H22.1354C22.8531 19.271 23.4375 18.6866 23.4375 17.9688V4.94795C23.4375 4.23022 22.8531 3.646 22.1354 3.646H15.8854C15.4541 3.646 15.1041 3.296 15.1041 2.86475C15.1041 2.43349 15.4541 2.0835 15.8854 2.0835H22.1354C23.7156 2.0835 25 3.36771 25 4.94795V17.9688C25 19.5491 23.7156 20.8335 22.1354 20.8335Z" fill="#ED8E00"/>
<path d="M14.8434 5.7291H10.1559C9.15069 5.7291 8.33301 4.91142 8.33301 3.90625V1.82285C8.33301 0.81768 9.15069 0 10.1559 0H14.8434C15.8485 0 16.6662 0.81768 16.6662 1.82285V3.90625C16.6662 4.91142 15.8485 5.7291 14.8434 5.7291ZM10.1559 1.5625C10.012 1.5625 9.89551 1.67923 9.89551 1.82285V3.90625C9.89551 4.05006 10.012 4.1666 10.1559 4.1666H14.8434C14.9872 4.1666 15.1037 4.05006 15.1037 3.90625V1.82285C15.1037 1.67923 14.9872 1.5625 14.8434 1.5625H10.1559Z" fill="#ED8E00"/>
<path d="M7.81114 12.4999C6.37566 12.4999 5.20703 11.3311 5.20703 9.8958C5.20703 8.46033 6.37566 7.2915 7.81114 7.2915C9.24661 7.2915 10.4152 8.46033 10.4152 9.8958C10.4152 11.3311 9.24661 12.4999 7.81114 12.4999ZM7.81114 8.854C7.23721 8.854 6.76953 9.32169 6.76953 9.8958C6.76953 10.4697 7.23721 10.9374 7.81114 10.9374C8.38506 10.9374 8.85274 10.4697 8.85274 9.8958C8.85274 9.32169 8.38506 8.854 7.81114 8.854Z" fill="#ED8E00"/>
<path d="M11.7188 17.7083C11.2875 17.7083 10.9375 17.3583 10.9375 16.927V16.4062C10.9375 15.6884 10.3531 15.104 9.63535 15.104H5.98965C5.27191 15.104 4.6875 15.6884 4.6875 16.4062V16.927C4.6875 17.3583 4.3375 17.7083 3.90625 17.7083C3.475 17.7083 3.125 17.3583 3.125 16.927V16.4062C3.125 14.8259 4.40941 13.5415 5.98965 13.5415H9.63535C11.2156 13.5415 12.5 14.8259 12.5 16.4062V16.927C12.5 17.3583 12.15 17.7083 11.7188 17.7083Z" fill="#ED8E00"/>
<path d="M21.0924 9.375H15.3633C14.932 9.375 14.582 9.025 14.582 8.59375C14.582 8.1625 14.932 7.8125 15.3633 7.8125H21.0924C21.5236 7.8125 21.8736 8.1625 21.8736 8.59375C21.8736 9.025 21.5236 9.375 21.0924 9.375Z" fill="#ED8E00"/>
<path d="M21.0924 13.5415H15.3633C14.932 13.5415 14.582 13.1915 14.582 12.7603C14.582 12.329 14.932 11.979 15.3633 11.979H21.0924C21.5236 11.979 21.8736 12.329 21.8736 12.7603C21.8736 13.1915 21.5236 13.5415 21.0924 13.5415Z" fill="#ED8E00"/>
<path d="M21.0924 17.7085H15.3633C14.932 17.7085 14.582 17.3585 14.582 16.9272C14.582 16.496 14.932 16.146 15.3633 16.146H21.0924C21.5236 16.146 21.8736 16.496 21.8736 16.9272C21.8736 17.3585 21.5236 17.7085 21.0924 17.7085Z" fill="#ED8E00"/>
</svg>
