<svg width="20" height="20" viewBox="0 0 20 20" fill="none" xmlns="http://www.w3.org/2000/svg">
<mask id="mask0" mask-type="alpha" maskUnits="userSpaceOnUse" x="0" y="0" width="20" height="20">
<circle cx="10" cy="10" r="10" fill="white"/>
</mask>
<g mask="url(#mask0)">
<path d="M-3.72729 9.99995C-3.72729 12.6952 -2.9507 15.2077 -1.62591 17.3091H21.535C22.8597 15.2077 23.6363 12.6952 23.6363 9.99995C23.6363 7.3047 22.8597 4.79218 21.535 2.6908H-1.62591C-2.9507 4.79218 -3.72729 7.3047 -3.72729 9.99995Z" fill="#FFCE31"/>
<path d="M21.5808 2.6908C19.1597 -1.14651 14.8655 -3.70471 9.97754 -3.70471C5.08955 -3.70471 0.795424 -1.14651 -1.62573 2.6908H21.5808Z" fill="#ED4C5C"/>
<path d="M-1.62549 17.3091C0.795668 21.1464 5.08979 23.7046 9.97779 23.7046C14.8658 23.7046 19.1599 21.1464 21.5811 17.3091H-1.62549Z" fill="#ED4C5C"/>
<path d="M-0.437988 8.49243H1.02384V9.31471H-0.437988V8.49243Z" fill="#C8B100"/>
<path d="M-0.438232 14.5225H1.06928V15.2991H-0.438232V14.5225Z" fill="#C8B100"/>
<path d="M-0.209961 9.3147H0.84073V14.5225H-0.209961V9.3147Z" fill="white"/>
<path d="M1.93706 11.2334C1.70865 11.142 1.29751 11.0507 0.840692 11.0507C0.703645 11.0507 0.520916 11.0507 0.338188 11.0963C-0.301363 11.1877 -0.803867 11.4618 -0.758185 11.6445L-0.986596 11.142C-1.03228 10.9136 -0.484091 10.6395 0.201141 10.5025C0.429552 10.4568 0.657963 10.4568 0.840692 10.4568C1.29751 10.4568 1.70865 10.5025 1.93706 10.5938V11.2334Z" fill="#ED4C5C"/>
<path d="M0.84082 11.5074C1.02355 11.5531 1.1606 11.5988 1.25196 11.6445C1.29764 11.6902 1.11491 11.8729 0.84082 12.01V11.5074Z" fill="#ED4C5C"/>
<path d="M-0.895062 12.9236C-0.940744 12.8323 -0.620969 12.6495 -0.209829 12.5125C-0.0271003 12.4668 0.109946 12.3754 0.338357 12.2841C0.886544 12.0557 1.34337 11.7359 1.252 11.6445L1.34337 12.1927C1.38905 12.2841 1.02359 12.5582 0.475404 12.8323C0.292675 12.9236 -0.0271003 13.0607 -0.209829 13.1064C-0.529604 13.1977 -0.803698 13.3805 -0.803698 13.4261L-0.895062 12.9236Z" fill="#ED4C5C"/>
<path d="M9.38306 8.49243H10.8449V9.31471H9.38306V8.49243Z" fill="#C8B100"/>
<path d="M9.33789 14.5225H10.8454V15.2991H9.33789V14.5225Z" fill="#C8B100"/>
<path d="M10.9823 13.2434C11.1193 13.3348 11.2107 13.4261 11.2107 13.4718C11.2107 13.5175 11.165 13.5632 11.0737 13.6089C10.9823 13.7002 10.8909 13.8373 10.9366 13.883C10.8452 13.7916 10.7996 13.7002 10.7996 13.6089C10.7996 13.4261 10.8909 13.2891 10.9823 13.2434Z" fill="#ED4C5C"/>
<path d="M9.56641 9.3147H10.6171V14.5225H9.56641V9.3147Z" fill="white"/>
<path d="M8.47046 11.2334C8.69887 11.142 9.11001 11.0507 9.56683 11.0507C9.70388 11.0507 9.88661 11.0507 10.0693 11.0963C10.7089 11.1877 11.2114 11.4618 11.1657 11.6445L11.3941 11.0963C11.4398 10.8679 10.8916 10.5938 10.2064 10.4568H9.56683C9.11001 10.4568 8.69887 10.5025 8.47046 10.5938V11.2334Z" fill="#ED4C5C"/>
<path d="M10.6175 11.9185C10.8916 11.9185 11.12 11.8272 11.12 11.6901C11.12 11.5988 11.0286 11.4617 10.8459 11.3704H10.5718L10.6175 11.9185Z" fill="#ED4C5C"/>
<path d="M9.56682 11.5074C9.38409 11.5531 9.24704 11.5988 9.15568 11.6445C9.11 11.6902 9.29272 11.8729 9.56682 12.01V11.5074Z" fill="#ED4C5C"/>
<path d="M11.3021 12.9235C11.3478 12.8321 11.028 12.6494 10.6169 12.5124C10.4341 12.4667 10.2971 12.3753 10.0687 12.284C9.52048 12.0555 9.06366 11.7358 9.15503 11.6444L9.06366 12.1926C9.01798 12.284 9.38344 12.5581 9.93162 12.8321C10.1144 12.9235 10.4341 13.0606 10.6169 13.1062C10.9366 13.1976 11.2107 13.426 11.165 13.4717L11.3021 12.9235Z" fill="#ED4C5C"/>
<path d="M5.18072 5.56873C6.04868 5.56873 7.83029 5.75145 8.46984 6.39101C7.78461 8.03556 6.68823 7.35033 5.18072 7.35033C3.71889 7.35033 2.57683 8.03556 1.8916 6.39101C2.53115 5.75145 4.26708 5.56873 5.18072 5.56873Z" fill="#ED4C5C"/>
<path d="M7.41948 7.39597C6.8713 7.0762 6.04902 7.03052 5.18105 7.03052C4.31309 7.03052 3.49081 7.12188 2.94263 7.39597L3.12536 8.17257C3.62786 8.30962 4.35877 8.40098 5.18105 8.40098C6.00333 8.40098 6.68857 8.30962 7.23675 8.17257L7.41948 7.39597Z" fill="#C8B100"/>
<path d="M8.19567 5.43169C8.01294 5.29465 7.64748 5.1576 7.3277 5.1576C7.19066 5.1576 7.05361 5.1576 6.91656 5.20328C6.91656 5.20328 6.64247 4.83782 6.00292 4.83782C5.77451 4.83782 5.59178 4.88351 5.40905 4.97487V4.92919C5.36337 4.83782 5.27201 4.74646 5.18064 4.74646C5.08928 4.74646 4.95223 4.88351 4.95223 4.97487V5.02055C4.7695 4.92919 4.58677 4.88351 4.35836 4.88351C3.71881 4.88351 3.44472 5.29465 3.44472 5.24896C3.30767 5.20328 3.17062 5.20328 3.03358 5.20328C0.932197 5.20328 1.98289 6.61943 1.98289 6.61943L2.2113 6.34534C1.70879 5.70579 2.16562 5.34033 3.07926 5.34033C3.21631 5.34033 3.30767 5.34033 3.39904 5.38601C3.07926 5.84283 3.67313 6.25397 3.67313 6.25397L3.81018 6.02556C3.4904 5.79715 3.44472 5.02055 4.35836 5.02055C4.58677 5.02055 4.7695 5.06624 4.95223 5.20328C4.95223 5.24896 4.90655 5.88852 4.86087 5.97988L5.22632 6.29965L5.59178 5.97988C5.5461 5.84283 5.50042 5.24896 5.50042 5.20328C5.63746 5.11192 5.86587 5.02055 6.09429 5.02055C7.05361 5.02055 7.05361 5.79715 6.64247 6.02556L6.77952 6.25397C6.77952 6.25397 7.28202 5.84283 7.05361 5.38601C7.14498 5.38601 7.28202 5.34033 7.37339 5.34033C8.46976 5.34033 8.51544 6.16261 8.24135 6.34534L8.42408 6.61943C8.33271 6.61943 8.83522 5.97988 8.19567 5.43169Z" fill="#C8B100"/>
<path d="M4.90649 4.56377C4.90649 4.42672 5.04354 4.28967 5.18059 4.28967C5.36332 4.28967 5.45468 4.42672 5.45468 4.56377C5.45468 4.70081 5.31763 4.83786 5.18059 4.83786C5.04354 4.83786 4.90649 4.70081 4.90649 4.56377Z" fill="#005BBF"/>
<path d="M5.08922 3.78723V3.92428H4.95218V4.06132H5.08922V4.51815H4.90649V4.65519H5.45468L5.50036 4.56383L5.45468 4.51815H5.27195V4.06132H5.409V3.92428H5.27195V3.78723H5.08922Z" fill="#C8B100"/>
<path d="M5.18059 8.30973C4.44967 8.30973 3.81012 8.21836 3.30762 8.08132C3.81012 7.94427 4.44967 7.85291 5.18059 7.85291C5.9115 7.85291 6.55105 7.94427 7.05356 8.08132C6.59674 8.21836 5.9115 8.30973 5.18059 8.30973Z" fill="#ED4C5C"/>
<path d="M5.22637 16.2127C4.35841 16.2127 3.53613 15.9843 2.80522 15.6645C2.25703 15.3904 1.93726 14.8879 1.93726 14.2941V12.1013H8.51549V14.2941C8.51549 14.8879 8.15003 15.4361 7.64753 15.6645C6.91661 16.03 6.09434 16.2127 5.22637 16.2127Z" fill="white"/>
<path d="M5.18042 8.44678H8.46954V12.1014H5.18042V8.44678Z" fill="white"/>
<path d="M5.22686 14.2941C5.22686 15.162 4.49595 15.8473 3.5823 15.8473C2.66866 15.8473 1.93774 15.162 1.93774 14.2941V12.1013H5.22686V14.2941Z" fill="#ED4C5C"/>
<path d="M2.62256 15.5732C2.71392 15.6189 2.85097 15.7103 3.0337 15.7559V12.01H2.66824L2.62256 15.5732Z" fill="#C8B100"/>
<path d="M1.8916 14.2484C1.8916 14.7053 2.07433 15.0707 2.25706 15.2534V12.01H1.8916V14.2484Z" fill="#C8B100"/>
<path d="M3.35376 15.8473H3.71922V12.01H3.35376V15.8473Z" fill="#C7B500"/>
<path d="M4.08423 15.7559C4.22128 15.7103 4.404 15.6189 4.49537 15.5732V12.01H4.12991L4.08423 15.7559Z" fill="#C8B100"/>
<path d="M1.8916 8.44678H5.18072V12.1014H1.8916V8.44678Z" fill="#ED4C5C"/>
<path d="M4.86108 15.2534C5.04381 15.1164 5.18086 14.7966 5.22654 14.4311V12.0557H4.86108V15.2534Z" fill="#C8B100"/>
<path d="M8.51544 12.1013V14.2941C8.51544 15.162 7.78452 15.8473 6.87088 15.8473C5.95723 15.8473 5.22632 15.162 5.22632 14.2941V12.1013H8.51544Z" fill="#ED4C5C"/>
<path d="M7.32713 9.08628C7.46417 9.36037 7.46417 10.0456 7.05303 9.90856C7.1444 9.95424 7.19008 10.274 7.32713 10.4567C7.55554 10.7308 7.82963 10.5024 7.78395 10.1827C7.69258 9.68015 7.73826 9.36037 7.82963 8.85787C7.82963 8.90355 8.05804 8.90355 8.1494 8.81219C8.10372 8.94923 8.05804 9.13196 8.1494 9.13196C8.05804 9.26901 7.82963 9.49742 7.78395 9.63447C7.73826 9.95424 8.24077 10.5481 7.69258 10.6852C7.32712 10.7765 7.55554 11.0506 7.69258 11.1877C7.69258 11.1877 7.50985 11.7815 7.60122 11.7358C7.23576 11.8729 7.32713 11.5531 7.32713 11.5531C7.50985 11.0049 7.00735 10.9592 7.05303 10.8679C6.59621 10.8222 7.09871 11.279 6.68757 11.279C6.59621 11.279 6.41348 11.3704 6.41348 11.3704C5.91098 11.3247 6.18507 10.8679 6.3678 10.9136C6.50485 10.9592 6.64189 11.1877 6.64189 10.8679C6.64189 10.8679 6.41348 10.5024 7.00735 10.5024C6.77894 10.5024 6.64189 10.3197 6.55053 10.0913C6.45916 10.137 6.32212 10.3654 5.81961 10.4111C5.81961 10.4111 5.68257 9.90856 5.81961 9.99992C6.00234 10.0913 6.09371 10.0913 6.27643 9.90856C6.18507 9.77151 5.63688 9.58878 5.72825 9.26901C5.72825 9.17764 6.00234 9.0406 6.00234 9.0406C5.95666 9.26901 6.09371 9.49742 6.3678 9.49742C6.73326 9.5431 6.59621 9.40605 6.64189 9.31469C6.68757 9.22333 6.96167 9.36037 6.8703 9.13196C6.8703 9.08628 6.55053 9.0406 6.64189 8.90355C6.82462 8.67514 7.09871 8.85787 7.32713 9.08628Z" fill="#ED4C5C"/>
<path d="M5.22613 15.7559L5.13477 15.5275L5.22613 15.2534L5.31749 15.5275L5.22613 15.7559Z" fill="#ED4C5C"/>
<path d="M2.89616 9.22337V9.45178H2.98753V9.63451H2.75912V10.0913H2.89616V11.0963H2.62207V11.5988H4.49504V11.0963H4.26663V10.0913H4.35799V9.63451H4.12958V9.45178H4.26663V9.22337H3.80981V9.45178H3.90117V9.63451H3.67276V9.08632H3.80981V8.85791H3.3073V9.08632H3.44435V9.63451H3.21594V9.45178H3.3073V9.22337H2.89616Z" fill="#C8B100"/>
<path d="M8.05907 14.8423V12.5582H5.68359V14.8423L6.77997 15.3448H6.91701L8.05907 14.8423ZM6.77997 12.741V13.5176L6.00337 12.741H6.77997ZM5.82064 12.7866L6.73428 13.7003L5.82064 14.6139V12.7866ZM5.912 14.7967L6.77997 13.9287V15.2078L5.912 14.7967ZM6.91701 15.1621V13.883L7.78497 14.751L6.91701 15.1621ZM7.87634 14.6139L6.96269 13.7003L7.87634 12.7866V14.6139ZM6.91701 12.741H7.69361L6.91701 13.5176V12.741Z" fill="#C8B100"/>
<path d="M4.12964 12.0557C4.12964 11.3704 4.58646 10.8679 5.18033 10.8679C5.7742 10.8679 6.23102 11.4161 6.23102 12.0557C6.23102 12.6952 5.7742 13.2434 5.18033 13.2434C4.58646 13.2434 4.12964 12.7409 4.12964 12.0557Z" fill="#ED4C5C"/>
<path d="M4.4502 12.0556C4.4502 11.5531 4.76997 11.1876 5.18111 11.1876C5.59225 11.1876 5.91203 11.5988 5.91203 12.0556C5.91203 12.5581 5.59225 12.9235 5.18111 12.9235C4.81565 12.9692 4.4502 12.5581 4.4502 12.0556Z" fill="#005BBF"/>
<path d="M4.86095 11.4618L4.67822 11.9643L4.81527 12.01L4.72391 12.1927H4.998L4.90663 12.01L5.04368 11.9643L4.86095 11.4618Z" fill="#C8B100"/>
<path d="M5.54625 11.4618L5.36353 11.9643L5.50057 12.01L5.40921 12.1927H5.6833L5.63762 12.01L5.77466 11.9643L5.54625 11.4618Z" fill="#C8B100"/>
<path d="M5.22621 12.0557L4.9978 12.5582L5.13485 12.6039L5.08917 12.7866H5.31758L5.2719 12.6039L5.40894 12.5582L5.22621 12.0557Z" fill="#C8B100"/>
</g>
</svg>
