<svg width="69" height="50" viewBox="0 0 69 50" fill="none" xmlns="http://www.w3.org/2000/svg">
<path d="M18.8379 26.8623L9.67453 13.9233C8.31561 12.018 6.17125 10.9968 4.00196 10.9968C2.61811 10.9968 1.20932 11.4078 0 12.2671L16.2447 35.1935L18.7756 38.7552L18.8254 38.8299C18.8379 38.8174 18.8379 38.8174 18.8504 38.8174C18.8753 38.7925 18.9002 38.7801 18.9252 38.7552L21.456 35.1935C22.0544 33.2135 21.7677 30.9843 20.4836 29.1661L18.8379 26.8623Z" fill="#ED8E00"/>
<path d="M23.9371 24.2092L26.468 27.7708L26.5178 27.8331L26.5677 27.7708L29.0861 24.2092L29.2107 24.0348L34.447 16.6376L39.6832 24.0348L39.8078 24.2092L42.3262 27.7708L42.3761 27.8331L42.426 27.7708L44.9568 24.2092L45.0815 24.0348L61.1891 1.27023C59.9673 0.410958 58.571 0 57.1746 0C54.9929 0 52.8485 1.02117 51.5021 2.92652L42.3761 15.8157L38.6983 10.6226L34.447 4.62016L30.1956 10.6226L26.5054 15.8157L17.3669 2.92652C16.008 1.02117 13.8636 0 11.6943 0C10.3105 0 8.9017 0.410958 7.69238 1.27023L23.8124 24.0224L23.9371 24.2092Z" fill="#8152E4"/>
<path d="M64.879 10.9839C62.6972 10.9839 60.5529 12.0051 59.2064 13.9104L50.043 26.8494L48.4098 29.1532C47.1133 30.9714 46.8265 33.2005 47.4374 35.1806L49.9682 38.7422C49.9932 38.7671 50.0181 38.7796 50.043 38.8045C50.0555 38.8045 50.0555 38.8169 50.068 38.8169L50.1178 38.7422L52.6487 35.1806L68.881 12.2666C67.6592 11.3948 66.2628 10.9839 64.879 10.9839Z" fill="#ED8E00"/>
<path d="M42.4136 38.0324L38.7732 32.8892L34.5219 26.8867L34.4471 26.9863L34.3723 26.8867L30.121 32.8892L26.4806 38.0324L24.8473 40.3363C23.5508 42.1544 23.264 44.3836 23.8749 46.3636L26.4057 49.9253C26.4307 49.9502 26.4556 49.9626 26.4806 49.9875C26.493 50 26.493 50 26.5055 50L26.5554 49.9253L29.0862 46.3636L34.3847 38.8917L34.4596 38.792L34.5344 38.8917L39.8329 46.3636L42.3637 49.9253L42.4136 50C42.4261 49.9875 42.4261 49.9875 42.4386 49.9875C42.4635 49.9626 42.4884 49.9502 42.5134 49.9253L45.0442 46.3636C45.6426 44.3836 45.3559 42.1544 44.0718 40.3363L42.4136 38.0324Z" fill="#8152E4"/>
</svg>
