<svg width="20" height="20" viewBox="0 0 20 20" fill="none" xmlns="http://www.w3.org/2000/svg">
<mask id="mask0" mask-type="alpha" maskUnits="userSpaceOnUse" x="0" y="0" width="20" height="20">
<circle cx="10" cy="10" r="10" fill="white"/>
</mask>
<g mask="url(#mask0)">
<path d="M9.99991 20.9091C16.0248 20.9091 20.909 16.025 20.909 10C20.909 3.97511 16.0248 -0.909058 9.99991 -0.909058C3.97499 -0.909058 -0.90918 3.97511 -0.90918 10C-0.90918 16.025 3.97499 20.9091 9.99991 20.9091Z" fill="#ED4C5C"/>
<path d="M13.3816 12.5455L13.418 10.5819L11.4543 10L13.418 9.41823L13.3816 7.45459L14.5816 9.01823L16.5453 8.43641L15.3453 10L16.5453 11.5637L14.5816 10.9819L13.3816 12.5455Z" fill="white"/>
<path d="M10.4362 14.3637C8.03616 14.3637 6.10889 12.4001 6.10889 10.0001C6.10889 7.60008 8.03616 5.63644 10.4362 5.63644C11.3453 5.63644 12.1816 5.92735 12.9089 6.40008C11.9271 5.27281 10.4725 4.54553 8.83616 4.54553C5.85435 4.54553 3.45435 6.9819 3.45435 10.0001C3.45435 13.0183 5.85435 15.4546 8.83616 15.4546C10.4725 15.4546 11.9271 14.7274 12.9089 13.6001C12.218 14.0728 11.3816 14.3637 10.4362 14.3637Z" fill="white"/>
</g>
</svg>
